<?xml version="1.0" encoding="UTF-8" standalone="no"?>
<!DOCTYPE svg PUBLIC "-//W3C//DTD SVG 1.1//EN" "http://www.w3.org/Graphics/SVG/1.1/DTD/svg11.dtd">
<svg version="1.1" xmlns="http://www.w3.org/2000/svg" xmlns:xlink="http://www.w3.org/1999/xlink" preserveAspectRatio="xMidYMid meet" viewBox="0 0 640 640" width="640" height="640"><defs><path d="M633.39 523.21C543.35 466.69 532.04 221.9 533.7 161.13C535.36 100.36 499.26 121.16 488.91 131.69C469.48 151.43 444.8 216.82 414.85 327.86C408.11 352.84 398.32 376.89 385.72 399.49C381.39 407.23 384.45 401.76 379.38 410.84C369.46 428.62 354.13 442.8 335.63 451.32C333.38 452.35 329.54 452.87 324.11 452.88C315.61 452.89 307.99 449.91 301.26 443.96C285 429.58 273.96 410.21 269.87 388.89C249.68 283.78 221.51 231.91 185.35 233.3C157.9 234.35 163.67 292.45 142.11 348.58C112.94 424.52 50.44 506.2 7.15 520" id="j2gwU4pFhA"></path></defs><g><g><g><g><filter id="shadow7131362" x="-1.85" y="110.57" width="645.24" height="422.64" filterUnits="userSpaceOnUse" primitiveUnits="userSpaceOnUse"><feFlood></feFlood><feComposite in2="SourceAlpha" operator="in"></feComposite><feGaussianBlur stdDeviation="1"></feGaussianBlur><feOffset dx="1" dy="1" result="afterOffset"></feOffset><feFlood flood-color="#000000" flood-opacity="0.5"></feFlood><feComposite in2="afterOffset" operator="in"></feComposite><feMorphology operator="dilate" radius="1"></feMorphology><feComposite in2="SourceAlpha" operator="out"></feComposite></filter><path d="M633.39 523.21C543.35 466.69 532.04 221.9 533.7 161.13C535.36 100.36 499.26 121.16 488.91 131.69C469.48 151.43 444.8 216.82 414.85 327.86C408.11 352.84 398.32 376.89 385.72 399.49C381.39 407.23 384.45 401.76 379.38 410.84C369.46 428.62 354.13 442.8 335.63 451.32C333.38 452.35 329.54 452.87 324.11 452.88C315.61 452.89 307.99 449.91 301.26 443.96C285 429.58 273.96 410.21 269.87 388.89C249.68 283.78 221.51 231.91 185.35 233.3C157.9 234.35 163.67 292.45 142.11 348.58C112.94 424.52 50.44 506.2 7.15 520" id="a4HoyXEzww" fill="none" stroke="white" filter="url(#shadow7131362)"></path></g><use xlink:href="#j2gwU4pFhA" opacity="1" fill="#10b7e3" fill-opacity="1"></use><g><use xlink:href="#j2gwU4pFhA" opacity="1" fill-opacity="0" stroke="#203333" stroke-width="19" stroke-opacity="1"></use></g></g></g></g></svg>